<?xml version="1.0" standalone="no"?>
<!DOCTYPE svg PUBLIC "-//W3C//DTD SVG 20010904//EN"
 "http://www.w3.org/TR/2001/REC-SVG-20010904/DTD/svg10.dtd">
<svg version="1.0" xmlns="http://www.w3.org/2000/svg"
 width="400.000000pt" height="400.000000pt" viewBox="0 0 400.000000 400.000000"
 preserveAspectRatio="xMidYMid meet" style="background-color: #FFFFFF;">

<g transform="translate(0.000000,400.000000) scale(0.100000,-0.100000)"
fill="#0c3b36" stroke="none">
<path d="M0 2000 l0 -2000 2000 0 2000 0 0 2000 0 2000 -2000 0 -2000 0 0
-2000z m2213 1590 c233 -34 424 -97 609 -201 424 -240 719 -652 804 -1124 27
-147 24 -414 -5 -555 -64 -307 -201 -574 -406 -789 -248 -260 -526 -414 -886
-493 -91 -20 -132 -22 -334 -22 -217 0 -237 1 -349 28 -440 103 -781 331
-1024 684 -228 332 -320 765 -247 1167 74 411 332 796 695 1039 178 119 427
219 630 251 58 9 112 18 120 19 38 9 329 5 393 -4z"/>
<path d="M1980 3353 c-1 -5 -5 -28 -10 -53 -20 -97 -31 -434 -20 -627 17 -326
43 -394 70 -184 24 186 13 754 -16 854 -5 17 -24 24 -24 10z"/>
<path d="M2422 3228 c-101 -169 -289 -680 -307 -840 l-6 -53 21 25 c28 32 71
116 127 250 118 279 238 670 206 670 -5 0 -23 -24 -41 -52z"/>
<path d="M1465 3223 c31 -167 230 -649 340 -825 66 -104 70 -67 13 112 -17 52
-38 115 -48 140 -68 169 -130 310 -177 405 -93 187 -144 254 -128 168z"/>
<path d="M2804 2998 c-142 -125 -369 -385 -507 -579 -51 -72 -83 -139 -67
-139 17 0 227 209 328 325 163 189 322 402 322 432 0 22 -14 15 -76 -39z"/>
<path d="M1060 3007 c0 -36 209 -294 390 -481 137 -141 300 -276 300 -248 0
56 -424 534 -599 676 -82 65 -91 71 -91 53z"/>
<path d="M3122 2680 c-151 -54 -563 -285 -725 -406 -128 -96 -113 -108 48 -38
253 111 745 412 745 456 0 11 -6 10 -68 -12z"/>
<path d="M773 2632 c65 -73 483 -304 736 -407 119 -48 161 -60 161 -46 0 55
-719 436 -881 468 -34 6 -34 6 -16 -15z"/>
<path d="M3160 2259 c-307 -33 -758 -133 -800 -176 -13 -14 -3 -15 105 -9 66
3 165 12 220 20 254 38 529 100 636 143 77 30 5 40 -161 22z"/>
<path d="M650 2210 l-45 -6 36 -16 c120 -53 550 -123 835 -135 163 -7 190 4
91 36 -188 63 -765 139 -917 121z"/>
<path d="M1960 2021 c-16 -31 4 -63 37 -59 34 4 52 32 37 56 -16 26 -60 28
-74 3z"/>
<path d="M2363 1947 c62 -51 646 -156 889 -160 166 -3 118 28 -127 82 -228 50
-446 81 -620 87 -142 5 -158 4 -142 -9z"/>
<path d="M1443 1935 c-306 -40 -770 -150 -804 -191 -45 -55 638 58 896 148 78
27 97 37 90 49 -8 12 -54 10 -182 -6z"/>
<path d="M2326 1818 c85 -96 777 -468 871 -468 46 0 -100 105 -327 236 -208
119 -498 254 -547 254 -14 0 -14 -3 3 -22z"/>
<path d="M1625 1811 c-200 -71 -815 -449 -815 -501 0 -13 72 11 164 55 238
112 731 432 706 458 -3 3 -28 -3 -55 -12z"/>
<path d="M2230 1732 c0 -10 63 -101 127 -185 171 -222 524 -579 549 -555 2 3
-17 38 -44 79 -164 250 -632 740 -632 661z"/>
<path d="M1645 1636 c-193 -195 -483 -567 -521 -670 -23 -60 152 104 313 295
108 128 267 344 303 410 47 88 17 77 -95 -35z"/>
<path d="M1858 1660 c-76 -112 -257 -605 -303 -824 -20 -99 -20 -112 1 -95 75
62 333 793 322 911 l-3 33 -17 -25z"/>
<path d="M2120 1658 c0 -48 66 -257 143 -453 89 -226 203 -455 227 -455 12 0
13 -4 -4 77 -17 81 -71 244 -133 403 -59 152 -185 410 -212 434 -21 19 -21 19
-21 -6z"/>
<path d="M1979 1578 c-16 -90 -15 -543 0 -703 13 -122 30 -215 41 -215 14 0
21 45 32 215 19 278 -14 775 -51 775 -5 0 -15 -33 -22 -72z"/>
</g>
</svg>
